<?xml version="1.0" encoding="UTF-8"?>
<svg xmlns="http://www.w3.org/2000/svg" xmlns:xlink="http://www.w3.org/1999/xlink" width="80pt" height="60pt" viewBox="0 0 80 60" version="1.1">
<g id="surface1">
<path style=" stroke:none;fill-rule:nonzero;fill:rgb(4.705882%,6.27451%,6.666667%);fill-opacity:1;" d="M 7.359375 40.921875 C 7.460938 40.800781 7.519531 40.640625 7.519531 40.480469 C 7.519531 40.28125 7.460938 40.121094 7.320312 39.960938 C 7.160156 39.78125 6.898438 39.699219 6.578125 39.699219 L 5.160156 39.699219 L 5.160156 42.261719 L 5.601562 42.261719 L 5.601562 41.28125 L 6.5 41.28125 L 7.039062 42.261719 L 7.539062 42.261719 L 6.921875 41.21875 C 7.121094 41.140625 7.261719 41.039062 7.359375 40.921875 Z M 6.640625 40.859375 L 5.601562 40.859375 L 5.601562 40.058594 L 6.578125 40.058594 C 6.761719 40.058594 6.898438 40.101562 6.980469 40.199219 C 7.058594 40.28125 7.078125 40.359375 7.078125 40.460938 C 7.078125 40.558594 7.039062 40.660156 6.960938 40.738281 C 6.859375 40.820312 6.761719 40.859375 6.640625 40.859375 Z M 8.980469 41.859375 L 10.71875 41.859375 L 10.71875 42.261719 L 8.539062 42.261719 L 8.539062 39.699219 L 10.621094 39.699219 L 10.621094 40.101562 L 8.980469 40.101562 L 8.980469 40.738281 L 9.960938 40.738281 L 9.960938 41.140625 L 8.980469 41.140625 Z M 13.539062 39.679688 L 13.980469 39.679688 L 13.980469 42.238281 L 13.601562 42.238281 L 12.121094 40.460938 L 12.121094 42.238281 L 11.679688 42.238281 L 11.679688 39.679688 L 12.058594 39.679688 L 13.539062 41.460938 Z M 16.019531 39.679688 L 14.839844 42.238281 L 15.300781 42.238281 L 15.601562 41.539062 L 16.820312 41.539062 L 17.121094 42.238281 L 17.601562 42.238281 L 16.421875 39.679688 Z M 15.761719 41.199219 L 16.199219 40.199219 L 16.21875 40.199219 L 16.660156 41.199219 Z M 20.199219 39.679688 L 20.640625 39.679688 L 20.640625 41.339844 C 20.640625 41.640625 20.539062 41.898438 20.320312 42.058594 C 20.101562 42.238281 19.839844 42.320312 19.5 42.320312 C 19.160156 42.320312 18.898438 42.238281 18.679688 42.058594 C 18.460938 41.878906 18.359375 41.640625 18.359375 41.339844 L 18.359375 39.679688 L 18.800781 39.679688 L 18.800781 41.339844 C 18.800781 41.519531 18.859375 41.679688 19 41.78125 C 19.140625 41.878906 19.300781 41.941406 19.5 41.941406 C 19.699219 41.941406 19.878906 41.878906 20 41.78125 C 20.140625 41.679688 20.199219 41.519531 20.199219 41.339844 Z M 22.238281 41.859375 L 23.820312 41.859375 L 23.820312 42.261719 L 21.800781 42.261719 L 21.800781 39.699219 L 22.238281 39.699219 Z M 24.019531 39.679688 L 26.480469 39.679688 L 26.480469 40.078125 L 25.480469 40.078125 L 25.480469 42.238281 L 25.039062 42.238281 L 25.039062 40.078125 L 24.039062 40.078125 L 24.039062 39.679688 Z M 30.121094 39.679688 L 30.558594 39.679688 L 30.558594 42.238281 L 30.179688 42.238281 L 28.699219 40.460938 L 28.699219 42.238281 L 28.261719 42.238281 L 28.261719 39.679688 L 28.640625 39.679688 L 30.121094 41.460938 Z M 31.800781 39.679688 L 32.238281 39.679688 L 32.238281 42.238281 L 31.800781 42.238281 Z M 35.738281 41.460938 C 35.738281 41.761719 35.640625 41.960938 35.421875 42.101562 C 35.199219 42.238281 34.941406 42.300781 34.601562 42.300781 C 34.058594 42.300781 33.601562 42.121094 33.199219 41.761719 L 33.460938 41.460938 C 33.800781 41.761719 34.179688 41.921875 34.601562 41.921875 C 34.800781 41.921875 34.960938 41.878906 35.101562 41.820312 C 35.21875 41.738281 35.28125 41.640625 35.28125 41.5 C 35.28125 41.359375 35.21875 41.238281 35.101562 41.199219 C 34.980469 41.140625 34.800781 41.101562 34.539062 41.078125 C 33.921875 41.039062 33.339844 40.980469 33.339844 40.378906 C 33.339844 40.238281 33.378906 40.121094 33.441406 40 C 33.5 39.898438 33.578125 39.820312 33.679688 39.761719 C 33.78125 39.699219 33.898438 39.660156 34 39.640625 C 34.121094 39.621094 34.238281 39.601562 34.359375 39.601562 C 34.601562 39.601562 34.839844 39.640625 35.039062 39.71875 C 35.238281 39.800781 35.421875 39.878906 35.539062 39.980469 L 35.28125 40.28125 C 35.199219 40.199219 35.078125 40.140625 34.921875 40.078125 C 34.761719 40.019531 34.578125 39.980469 34.359375 39.980469 C 34.199219 39.980469 34.058594 40.019531 33.941406 40.078125 C 33.839844 40.140625 33.78125 40.238281 33.78125 40.359375 C 33.78125 40.679688 34.28125 40.640625 34.800781 40.699219 C 35.261719 40.738281 35.738281 40.898438 35.738281 41.460938 Z M 39.058594 41.460938 C 39.058594 41.761719 38.960938 41.960938 38.738281 42.101562 C 38.519531 42.238281 38.261719 42.300781 37.921875 42.300781 C 37.378906 42.300781 36.921875 42.121094 36.519531 41.761719 L 36.78125 41.460938 C 37.121094 41.761719 37.5 41.921875 37.921875 41.921875 C 38.121094 41.921875 38.28125 41.878906 38.421875 41.820312 C 38.539062 41.738281 38.601562 41.640625 38.601562 41.5 C 38.601562 41.359375 38.539062 41.238281 38.421875 41.199219 C 38.300781 41.140625 38.121094 41.101562 37.859375 41.078125 C 37.238281 41.039062 36.660156 40.980469 36.660156 40.378906 C 36.660156 40.238281 36.699219 40.121094 36.761719 40 C 36.820312 39.898438 36.898438 39.820312 37 39.761719 C 37.101562 39.699219 37.21875 39.660156 37.320312 39.640625 C 37.441406 39.621094 37.558594 39.601562 37.679688 39.601562 C 37.921875 39.601562 38.160156 39.640625 38.359375 39.71875 C 38.558594 39.800781 38.738281 39.878906 38.859375 39.980469 L 38.601562 40.28125 C 38.519531 40.199219 38.398438 40.140625 38.238281 40.078125 C 38.078125 40.019531 37.898438 39.980469 37.679688 39.980469 C 37.519531 39.980469 37.378906 40.019531 37.261719 40.078125 C 37.160156 40.140625 37.101562 40.238281 37.101562 40.359375 C 37.101562 40.679688 37.601562 40.640625 38.121094 40.699219 C 38.601562 40.738281 39.058594 40.898438 39.058594 41.460938 Z M 58.460938 41.460938 C 58.460938 41.761719 58.359375 41.960938 58.140625 42.101562 C 57.921875 42.238281 57.660156 42.300781 57.320312 42.300781 C 56.78125 42.300781 56.320312 42.121094 55.921875 41.761719 L 56.179688 41.460938 C 56.519531 41.761719 56.898438 41.921875 57.320312 41.921875 C 57.519531 41.921875 57.679688 41.878906 57.820312 41.820312 C 57.941406 41.738281 58 41.640625 58 41.5 C 58 41.359375 57.941406 41.238281 57.820312 41.199219 C 57.699219 41.140625 57.519531 41.101562 57.261719 41.078125 C 56.640625 41.039062 56.058594 40.980469 56.058594 40.378906 C 56.058594 40.238281 56.101562 40.121094 56.160156 40 C 56.21875 39.898438 56.300781 39.820312 56.398438 39.761719 C 56.5 39.699219 56.621094 39.660156 56.71875 39.640625 C 56.839844 39.621094 56.960938 39.601562 57.078125 39.601562 C 57.320312 39.601562 57.558594 39.640625 57.761719 39.71875 C 57.960938 39.800781 58.140625 39.878906 58.261719 39.980469 L 58 40.28125 C 57.921875 40.199219 57.800781 40.140625 57.640625 40.078125 C 57.480469 40.019531 57.300781 39.980469 57.078125 39.980469 C 56.921875 39.980469 56.78125 40.019531 56.660156 40.078125 C 56.558594 40.140625 56.5 40.238281 56.5 40.359375 C 56.5 40.679688 57 40.640625 57.519531 40.699219 C 57.980469 40.738281 58.460938 40.898438 58.460938 41.460938 Z M 70.058594 41.460938 C 70.058594 41.761719 69.960938 41.960938 69.738281 42.101562 C 69.519531 42.238281 69.261719 42.300781 68.921875 42.300781 C 68.378906 42.300781 67.921875 42.121094 67.519531 41.761719 L 67.78125 41.460938 C 68.121094 41.761719 68.5 41.921875 68.921875 41.921875 C 69.121094 41.921875 69.28125 41.878906 69.421875 41.820312 C 69.539062 41.738281 69.601562 41.640625 69.601562 41.5 C 69.601562 41.359375 69.539062 41.238281 69.421875 41.199219 C 69.300781 41.140625 69.121094 41.101562 68.859375 41.078125 C 68.238281 41.039062 67.660156 40.980469 67.660156 40.378906 C 67.660156 40.238281 67.699219 40.121094 67.761719 40 C 67.820312 39.898438 67.898438 39.820312 68 39.761719 C 68.101562 39.699219 68.21875 39.660156 68.320312 39.640625 C 68.441406 39.621094 68.558594 39.601562 68.679688 39.601562 C 68.921875 39.601562 69.160156 39.640625 69.359375 39.71875 C 69.558594 39.800781 69.738281 39.878906 69.859375 39.980469 L 69.601562 40.28125 C 69.519531 40.199219 69.398438 40.140625 69.238281 40.078125 C 69.078125 40.019531 68.898438 39.980469 68.679688 39.980469 C 68.519531 39.980469 68.378906 40.019531 68.261719 40.078125 C 68.160156 40.140625 68.101562 40.238281 68.101562 40.359375 C 68.101562 40.679688 68.601562 40.640625 69.121094 40.699219 C 69.578125 40.738281 70.058594 40.898438 70.058594 41.460938 Z M 40.820312 39.679688 L 39.640625 42.238281 L 40.101562 42.238281 L 40.398438 41.539062 L 41.621094 41.539062 L 41.921875 42.238281 L 42.398438 42.238281 L 41.21875 39.679688 Z M 40.558594 41.199219 L 41 40.199219 L 41.019531 40.199219 L 41.460938 41.199219 Z M 45.179688 39.679688 L 45.621094 39.679688 L 45.621094 42.238281 L 45.238281 42.238281 L 43.761719 40.460938 L 43.761719 42.238281 L 43.320312 42.238281 L 43.320312 39.679688 L 43.699219 39.679688 L 45.179688 41.460938 Z M 50.058594 39.679688 L 50.5 39.679688 L 50.5 42.238281 L 50.058594 42.238281 L 50.058594 40.5 L 50.039062 40.5 L 49.179688 41.941406 L 49.101562 41.941406 L 48.238281 40.5 L 48.21875 40.5 L 48.21875 42.238281 L 47.800781 42.238281 L 47.800781 39.679688 L 48.261719 39.679688 L 49.160156 41.179688 Z M 51.699219 39.679688 L 52.140625 39.679688 L 52.140625 42.238281 L 51.699219 42.238281 Z M 52.941406 39.679688 L 55.398438 39.679688 L 55.398438 40.078125 L 54.398438 40.078125 L 54.398438 42.238281 L 53.960938 42.238281 L 53.960938 40.078125 L 52.960938 40.078125 L 52.960938 39.679688 Z M 61.179688 39.679688 L 61.621094 39.679688 L 61.621094 41.339844 C 61.621094 41.640625 61.519531 41.898438 61.300781 42.058594 C 61.078125 42.238281 60.820312 42.320312 60.480469 42.320312 C 60.140625 42.320312 59.878906 42.238281 59.660156 42.058594 C 59.441406 41.878906 59.339844 41.640625 59.339844 41.339844 L 59.339844 39.679688 L 59.78125 39.679688 L 59.78125 41.339844 C 59.78125 41.519531 59.839844 41.679688 59.980469 41.78125 C 60.121094 41.878906 60.28125 41.941406 60.480469 41.941406 C 60.679688 41.941406 60.859375 41.878906 60.980469 41.78125 C 61.121094 41.679688 61.179688 41.519531 61.179688 41.339844 Z M 64.800781 40.839844 C 64.898438 40.800781 64.980469 40.738281 65.039062 40.640625 C 65.101562 40.539062 65.140625 40.441406 65.140625 40.320312 C 65.140625 40.160156 65.078125 40.039062 64.960938 39.921875 C 64.820312 39.78125 64.601562 39.699219 64.339844 39.699219 L 62.800781 39.699219 L 62.800781 42.261719 L 64.378906 42.261719 C 64.660156 42.261719 64.878906 42.179688 65.039062 42.039062 C 65.199219 41.898438 65.28125 41.699219 65.28125 41.5 C 65.28125 41.339844 65.238281 41.199219 65.160156 41.078125 C 65.058594 40.941406 64.941406 40.859375 64.800781 40.839844 Z M 63.21875 40.078125 L 64.28125 40.078125 C 64.398438 40.078125 64.5 40.121094 64.558594 40.179688 C 64.621094 40.238281 64.660156 40.320312 64.660156 40.398438 C 64.660156 40.5 64.621094 40.578125 64.558594 40.660156 C 64.5 40.71875 64.398438 40.761719 64.28125 40.761719 L 63.21875 40.761719 Z M 64.699219 41.738281 C 64.621094 41.820312 64.519531 41.859375 64.378906 41.859375 L 63.21875 41.859375 L 63.21875 41.101562 L 64.378906 41.101562 C 64.5 41.101562 64.621094 41.140625 64.699219 41.238281 C 64.761719 41.320312 64.800781 41.398438 64.800781 41.480469 C 64.800781 41.578125 64.761719 41.660156 64.699219 41.738281 Z M 66.238281 39.679688 L 66.679688 39.679688 L 66.679688 42.238281 L 66.238281 42.238281 Z M 72.839844 39.679688 L 73.28125 39.679688 L 73.28125 42.238281 L 72.839844 42.238281 L 72.839844 41.039062 L 71.441406 41.039062 L 71.441406 42.238281 L 71 42.238281 L 71 39.679688 L 71.441406 39.679688 L 71.441406 40.640625 L 72.839844 40.640625 Z M 74.839844 39.679688 L 74.839844 42.238281 L 74.398438 42.238281 L 74.398438 39.679688 Z M 74.839844 39.679688 "/>
<path style=" stroke:none;fill-rule:nonzero;fill:rgb(95.686275%,42.745098%,12.54902%);fill-opacity:1;" d="M 55.28125 32.839844 C 46.878906 26.238281 37.378906 27.660156 37.378906 27.660156 C 37.140625 28.039062 36.921875 28.339844 36.921875 28.339844 C 46.980469 27.199219 53.359375 32.21875 54.898438 33.339844 C 55.039062 33.441406 55.238281 33.421875 55.339844 33.28125 C 55.460938 33.140625 55.421875 32.941406 55.28125 32.839844 "/>
<path style=" stroke:none;fill-rule:nonzero;fill:rgb(95.686275%,42.745098%,12.54902%);fill-opacity:1;" d="M 36.578125 27.738281 C 33.28125 28.078125 28.378906 29.539062 24.21875 32.839844 C 24.300781 32.78125 24.378906 32.761719 24.480469 32.78125 C 24.480469 32.78125 24.800781 32.859375 25.121094 32.941406 C 26.960938 31.621094 30.5 29.28125 36.058594 28.441406 C 36.078125 28.441406 36.359375 28.101562 36.578125 27.738281 "/>
<path style=" stroke:none;fill-rule:nonzero;fill:rgb(97.647059%,64.705882%,6.666667%);fill-opacity:1;" d="M 42.941406 27.761719 C 41.160156 25.179688 40.058594 21.839844 40.058594 18.101562 C 40.058594 19.699219 39.859375 20.921875 39.761719 21.519531 C 40.441406 25.261719 42.140625 27.660156 42.140625 27.660156 C 42.480469 27.699219 42.941406 27.761719 42.941406 27.761719 "/>
<path style=" stroke:none;fill-rule:nonzero;fill:rgb(92.941176%,10.588235%,16.078431%);fill-opacity:1;" d="M 40.058594 18.078125 C 40.058594 17.898438 39.921875 17.761719 39.738281 17.761719 C 39.558594 17.761719 39.421875 17.898438 39.421875 18.078125 C 39.421875 27.480469 32.339844 34.898438 24.460938 32.78125 C 24.300781 32.738281 24.121094 32.839844 24.078125 33 C 24.039062 33.160156 24.140625 33.339844 24.300781 33.378906 C 32.71875 35.601562 40.058594 27.839844 40.058594 18.078125 "/>
<path style=" stroke:none;fill-rule:nonzero;fill:rgb(97.647059%,64.705882%,6.666667%);fill-opacity:1;" d="M 43.441406 28.441406 C 46.320312 32.058594 50.238281 33.761719 54.320312 32.921875 C 54.421875 33 54.761719 33.238281 54.921875 33.359375 C 54.921875 33.359375 55.019531 33.441406 55.179688 33.421875 C 49.898438 34.78125 45.441406 32.28125 42.601562 28.359375 C 42.601562 28.320312 43 28.359375 43.441406 28.441406 "/>
</g>
</svg>
